<?xml version="1.0" encoding="utf-8"?>
<!-- Generator: Adobe Illustrator 25.0.0, SVG Export Plug-In . SVG Version: 6.00 Build 0)  -->
<svg version="1.1" id="Layer_1" xmlns="http://www.w3.org/2000/svg" xmlns:xlink="http://www.w3.org/1999/xlink" x="0px" y="0px"
	 viewBox="0 0 500 500" style="enable-background:new 0 0 500 500;" xml:space="preserve">
<path d="M219.2,428.9c47.6,0,91.8-16.2,127.1-43.1l96.9,96.9c5.6,5.6,12.9,8.4,19.6,8.4c6.7,0,14.6-2.8,19.6-8.4
	c11.2-11.2,11.2-28.6,0-39.8L386.1,346c26.9-35.3,43.1-79.5,43.1-127.1c0-115.9-94.1-210-210-210c-115.9,0-210,94.1-210,210
	C9.2,334.8,103.3,428.9,219.2,428.9L219.2,428.9z M219.2,64.9c84.6,0,154,68.9,154,154s-69.4,154-154,154c-84.6,0-154-69.4-154-154
	C65.2,134.4,134.1,64.9,219.2,64.9z"/>
</svg>
