<?xml version="1.0" encoding="utf-8"?>
<!-- Generator: Adobe Illustrator 25.0.0, SVG Export Plug-In . SVG Version: 6.00 Build 0)  -->
<svg version="1.1" id="Layer_1" xmlns="http://www.w3.org/2000/svg" xmlns:xlink="http://www.w3.org/1999/xlink" x="0px" y="0px"
	 viewBox="0 0 500 500" style="enable-background:new 0 0 500 500;" xml:space="preserve">
<style type="text/css">
	.st0{display:none;}
	.st1{display:inline;}
	.st2{display:inline;fill:#FFFFFF;}
</style>
<path class="st0" d="M219.2,428.9c47.6,0,91.8-16.2,127.1-43.1l96.9,96.9c5.6,5.6,12.9,8.4,19.6,8.4s14.6-2.8,19.6-8.4
	c11.2-11.2,11.2-28.6,0-39.8L386.1,346c26.9-35.3,43.1-79.5,43.1-127.1c0-115.9-94.1-210-210-210s-210,94.1-210,210
	C9.2,334.8,103.3,428.9,219.2,428.9L219.2,428.9z M219.2,64.9c84.6,0,154,68.9,154,154s-69.4,154-154,154s-154-69.4-154-154
	C65.2,134.4,134.1,64.9,219.2,64.9z"/>
<g class="st0">
	<path class="st1" d="M70.4,479.2c-30.6,0-55.4-24.9-55.4-55.4V157.4c0-30.6,24.9-55.4,55.4-55.4l191.4,0c7.7,0,14.9,7.2,14.9,14.9
		c0,7.6-7.2,14.9-14.9,14.9l-191.4,0c-14.6,0-25.7,11-25.7,25.7v266.4c0,14.6,11,25.7,25.7,25.7h266.5c14.6,0,25.7-11,25.7-25.7
		v-168c-0.1-3.7,1.6-7.6,4.5-10.5c2.9-2.9,6.7-4.6,10.4-4.6c3.7,0,7.5,1.7,10.4,4.6c2.9,2.9,4.5,6.8,4.5,10.5v168
		c0,30.6-24.9,55.4-55.4,55.4H70.4z M209.5,328.6c-6.4,0-12.7-0.5-18.7-1.6c-6-1-11-6.1-12.1-12.1c-2.7-15.8-1.9-33,2.5-51.1
		c1.8-7.3,3.9-13.8,6.2-19.3c0.3-0.7,0.6-1.4,0.9-2.1c1.7-4.3,3-7.3,7.4-11.5L396.4,30.3c7.6-7.7,16.8-9.3,23.1-9.4
		c0.4,0,0.8,0,1.2,0c0.4,0,0.8,0,1.3,0c0.4,0,0.7,0,1.1,0c9.5,0.8,19,5.4,26.1,12.5l23.2,23.2c7.1,7.1,11.7,16.7,12.5,26.3
		c0.9,10.2-2.4,19.6-9.3,26.5L275.3,309.3l0,0.1c-0.1,0.1-0.1,0.1-0.2,0.2c-0.1,0.1-0.2,0.2-0.3,0.3c-4.4,4.6-7.6,6-12.1,7.8
		c-0.5,0.2-1,0.4-1.6,0.7c-5.7,2.4-12.2,4.5-19.2,6.2C230.9,327.2,219.9,328.6,209.5,328.6z M216.6,248.4c-1.2,0.3-1.6,1.3-2,2.3
		l0,0c-1,2.4-1.9,7.2-2.9,12.2c-0.5,2.8-1.1,5.8-1.6,7.9c-1.7,7.1-2.7,15.8-2.8,25l0,2.5l2.5,0c9.3-0.1,18-1,25.2-2.8
		c5.6-1.3,14-4.9,18.1-6.7l0.8-0.3c1-0.4,2.5-1.1,2.7-2.5l163.4-163.4l-36.8-37L216.6,248.4z M404.3,64.5l36.8,37l13.4-13.4
		l-3.5-3.6l1.7-0.7l1.9,0.9l0.5,2c0.6-3-0.8-6.2-3.8-9.2l-1.3-1.3c-7.3-7.1-14.7-14.5-22-21.9c-3.2-3.2-6.1-3.9-7.9-3.9
		c-0.7,0-1.1,0.1-1.3,0.1l0.4,0l2.3,1.5l-0.5,2.7l-3.5-3.5L404.3,64.5z"/>
	<path class="st2" d="M421.9,23.3c0.3,0,0.6,0,0.9,0c8.9,0.8,17.9,5.1,24.6,11.8l23.2,23.2c6.7,6.7,11,15.7,11.8,24.7
		c0.9,9.4-2.2,18.1-8.6,24.5l-200.2,200l-0.1,0.1l-0.1,0.1l0,0c-0.1,0.1-0.3,0.2-0.4,0.4c-4,4.2-6.9,5.4-11.2,7.2
		c-0.5,0.2-1,0.4-1.6,0.7c-5.6,2.4-11.9,4.4-18.8,6.1c-10.9,2.6-21.6,4-31.9,4c-6.3,0-12.4-0.5-18.2-1.5c-4.9-0.9-9.2-5.2-10.1-10
		c-2.7-15.4-1.8-32.3,2.5-50.1c1.7-7,3.8-13.6,6.1-19c0.3-0.7,0.6-1.4,0.9-2.1c1.7-4.1,2.8-6.8,6.8-10.7l0,0l0,0l0.5-0.5l200-200
		c7-7,15.3-8.6,21.1-8.7l0.2,0c0.4,0,0.8,0,1.2,0C421.1,23.3,421.5,23.3,421.9,23.3 M215.3,246.2c-1.9,0.8-2.6,2.6-3,3.5
		c-1,2.5-1.8,6.4-3,12.7c-0.5,2.8-1.1,5.7-1.6,7.8c-1.8,7.3-2.8,16.2-2.9,25.6l-0.1,5.1l5.1,0c9.5-0.1,18.4-1.1,25.7-2.9
		c5.8-1.4,14.3-5.1,18.5-6.8l0.8-0.3c0.9-0.4,3.2-1.4,4-3.5l161.2-161.2l3.5-3.5l-3.5-3.5l-33.3-33.5l-3.5-3.5l-3.5,3.5L215.3,246.2
		 M70.4,104.4L70.4,104.4l191.1,0h0l0,0l0.1,0c6.4,0,12.4,6,12.4,12.4c0,6.4-6,12.4-12.4,12.4l-0.1,0l0,0h0H70.4
		c-15.8,0-28.2,12.4-28.2,28.2v266.4c0,15.8,12.4,28.2,28.2,28.2h266.5c15.8,0,28.2-12.4,28.2-28.2v-168v0l0,0c0-3,1.3-6.2,3.8-8.7
		c2.4-2.5,5.6-3.9,8.6-3.9c3,0,6.2,1.4,8.6,3.9c2.4,2.5,3.8,5.6,3.8,8.7l0,0v0v168c0,14-5.5,27.3-15.6,37.3
		c-10,10-23.3,15.6-37.3,15.6H70.4c-14,0-27.3-5.5-37.3-15.6c-10-10-15.6-23.3-15.6-37.3V157.4c0-14,5.5-27.3,15.6-37.3
		S56.4,104.4,70.4,104.4 M421.9,18.3c-0.8,0-1.6,0-2.5,0.1l0,0c-8.9,0.1-17.8,3.2-24.8,10.1l-200,200l-0.5,0.5
		c-5.6,5.3-6.6,9.2-8.9,14.5c-2.4,5.5-4.5,12.2-6.3,19.7c-3.6,15-5.8,33.4-2.5,52.1c1.2,7,7.1,12.9,14.1,14.1
		c6.4,1.1,12.9,1.6,19.1,1.6c11.9,0,23.2-1.7,33-4.1c7.5-1.8,14-4,19.5-6.3c5.3-2.3,9.2-3.5,14.5-9.1c0.2-0.2,0.3-0.3,0.5-0.5
		l200.2-200c15.9-15.9,11.8-41.2-3.3-56.3l-23.2-23.2c-7.5-7.5-17.5-12.3-27.7-13.2C422.8,18.3,422.3,18.3,421.9,18.3L421.9,18.3z
		 M419.2,53.1c0.1,0,0.4-0.1,0.9-0.1c1.2,0,3.4,0.4,6.1,3.2c7.7,7.8,15.5,15.5,23.4,23.2c4.1,4.1,3,7.1,3.1,7.1c0,0,0,0,0,0
		L441.1,98l-33.3-33.5L419.2,53.1C419.2,53.1,419.2,53.1,419.2,53.1L419.2,53.1z M216.9,251.6L383.2,89.1l33.3,33.5L253.1,286
		c0.3-0.2,0.9-0.4,1-0.4c0.1,0-0.1,0.2-1.2,0.6c-3.4,1.5-12.7,5.5-18.5,6.9c-7.5,1.8-16.1,2.6-24.6,2.7c0.1-8.5,0.9-17,2.7-24.4
		C213.9,265.6,215.4,255.1,216.9,251.6c0.2-0.6,0.3-0.8,0.3-0.8C217.2,250.8,217,251.4,216.9,251.6L216.9,251.6z M70.4,99.4
		c-31.8,0-57.9,26.1-57.9,57.9v266.4c0,31.8,26.1,57.9,57.9,57.9h266.5c31.8,0,57.9-26.1,57.9-57.9v-168c0.1-9.2-8.2-17.6-17.4-17.6
		c-9.2,0-17.5,8.4-17.4,17.6v168c0,13.1-10,23.2-23.2,23.2H70.4c-13.1,0-23.2-10-23.2-23.2V157.4c0-13.1,10-23.2,23.2-23.2h191.1
		c0.1,0,0.1,0,0.2,0c9.1,0,17.4-8.3,17.4-17.4c0-9.1-8.3-17.4-17.4-17.4c-0.1,0-0.1,0-0.2,0L70.4,99.4L70.4,99.4z M216.9,251.6
		L216.9,251.6C216.9,251.7,216.9,251.7,216.9,251.6C216.9,251.7,216.9,251.6,216.9,251.6L216.9,251.6z M253.1,286
		c-0.1,0.1-0.1,0.1-0.2,0.2L253.1,286L253.1,286z"/>
</g>
<path class="st0" d="M185.9,450.8h0.2c7-0.1,12.6-5.9,12.5-12.9l-7.1-317.4c-0.1-6.9-5.8-12.5-12.7-12.5h-0.2
	c-7,0.1-12.6,5.9-12.5,12.9l7.1,317.4C173.4,445.3,179,450.8,185.9,450.8z M312.1,450.8c6.9,0,10.6-5.5,10.7-12.5l7.1-317.4
	c0.1-7-5.5-12.8-12.5-12.9c-6.9-0.2-12.8,5.5-12.9,12.5L297.5,438c-0.1,7,7.5,12.8,14.5,12.9C312,450.8,312.1,450.8,312.1,450.8
	L312.1,450.8z M391.7,108.1c-7.1-0.1-12.8,5.3-13.1,12.3l-10.1,329.8c0,8.6-7,15.6-15.5,15.6l-206,0c-8.6,0-15.6-7-15.6-16
	l-10.1-329.4c-0.2-6.9-5.8-12.3-12.7-12.3c-0.1,0-0.3,0-0.4,0c-7,0.2-12.5,6.1-12.3,13.1l10.1,329c0,22.6,18.3,40.9,40.9,40.9h206
	c22.5,0,40.9-18.3,40.9-40.5L404,121.1C404.2,114.1,398.7,108.3,391.7,108.1L391.7,108.1z M412.2,62.5h-68.7
	C333.3,28.4,299.9,9,250,9s-83.3,19.4-93.6,53.5H87.8c-7,0-12.7,5.7-12.7,12.7c0,7,5.7,12.7,12.7,12.7h324.5c7,0,12.7-5.7,12.7-12.7
	C424.9,68.2,419.2,62.5,412.2,62.5L412.2,62.5z M183.7,62.5c11.8-22.8,41.5-28.2,66.3-28.2s54.5,5.3,66.3,28.2L183.7,62.5
	L183.7,62.5z M262.7,438.2V120.7c0-7-5.7-12.7-12.7-12.7s-12.7,5.7-12.7,12.7v317.4c0,7,5.7,12.7,12.7,12.7S262.7,445.2,262.7,438.2
	L262.7,438.2z"/>
<path d="M463.1,35.7c-36-36-95.2-36-131.2,0L232,134.4c15.1-2.3,31.4-1.2,46.5,3.5l76.7-76.7c23.2-23.2,59.2-23.2,82.5,0
	c11.6,10.5,17.4,25.6,17.4,40.7s-5.8,30.2-17.4,40.7L290.1,290.1c-11.6,11.6-26.7,17.4-40.7,17.4c-15.1,0-30.2-5.8-40.7-17.4
	c-9.3-9.3-15.1-20.9-16.3-32.5l-27.9,27.9c4.6,10.5,11.6,20.9,19.7,29c10.5,10.5,22.1,17.4,36,22.1c33.7,11.6,70.8,2.3,95.2-22.1
	l148.7-148.7c17.4-17.4,26.7-40.7,26.7-66.2C491,76.4,481.7,53.1,463.1,35.7L463.1,35.7z M315.6,183.2c-10.5-10.5-22.1-17.4-36-22.1
	c-33.7-11.6-70.8-3.5-95.2,22.1L35.7,331.9C18.3,349.3,9,372.5,9,398.1c0,24.4,9.3,48.8,26.7,66.2c36,36,95.2,36,131.2,0l98.7-98.7
	h-16.3c-10.5,0-20.9-1.2-30.2-3.5l-76.7,76.7c-11.6,11.6-26.7,17.4-40.7,17.4c-15.1,0-30.2-5.8-40.7-17.4
	c-23.2-23.2-23.2-59.2,0-82.5l148.7-148.7c22.1-22.1,59.2-22.1,82.5,0c9.3,9.3,15.1,20.9,16.3,33.7l27.9-27.9
	C330.7,201.8,323.8,192.5,315.6,183.2z"/>
</svg>
