<?xml version="1.0" encoding="utf-8"?>
<!-- Generator: Adobe Illustrator 25.0.0, SVG Export Plug-In . SVG Version: 6.00 Build 0)  -->
<svg version="1.1" id="Layer_1" xmlns="http://www.w3.org/2000/svg" xmlns:xlink="http://www.w3.org/1999/xlink" x="0px" y="0px"
	 viewBox="0 0 500 500" style="enable-background:new 0 0 500 500;" xml:space="preserve">
<style type="text/css">
	.st0{display:none;}
</style>
<path class="st0" d="M219.2,428.9c47.6,0,91.8-16.2,127.1-43.1l96.9,96.9c5.6,5.6,12.9,8.4,19.6,8.4s14.6-2.8,19.6-8.4
	c11.2-11.2,11.2-28.6,0-39.8L386.1,346c26.9-35.3,43.1-79.5,43.1-127.1c0-115.9-94.1-210-210-210s-210,94.1-210,210
	C9.2,334.8,103.3,428.9,219.2,428.9L219.2,428.9z M219.2,64.9c84.6,0,154,68.9,154,154s-69.4,154-154,154s-154-69.4-154-154
	C65.2,134.4,134.1,64.9,219.2,64.9z"/>
<path class="st0" d="M426.2,9.1c-9.3,0.1-18.5,3.3-25.8,10.5l-208,208l-0.6,0.6c-5.8,5.5-6.9,9.5-9.2,15.1
	c-2.4,5.8-4.7,12.7-6.6,20.5c-3.8,15.6-6,34.7-2.6,54.2c1.3,7.3,7.4,13.4,14.7,14.7c19.5,3.4,38.6,1.1,54.2-2.6
	c7.8-1.9,14.6-4.1,20.3-6.6c5.5-2.3,9.6-3.6,15.1-9.4c0.2-0.2,0.3-0.3,0.6-0.6l208.2-208c16.6-16.6,12.3-42.9-3.4-58.5L459,22.8
	C451.1,15,440.8,10,430.2,9.1C428.8,8.9,427.5,9,426.2,9.1L426.2,9.1z M426,45.2c-0.1,0.1,2.9-1.2,7.3,3.2
	c8,8.1,16.2,16.1,24.3,24.1c4.4,4.4,3.1,7.5,3.2,7.3l-12,12l-34.6-34.8L426,45.2z M388.6,82.7l34.6,34.8L253,287.7
	c0.4-0.6-1.8,1.3-4.5,2.4c-3.6,1.5-8.7,3.3-14.7,4.7c-7.8,1.9-16.8,2.7-25.6,2.8c0.1-8.8,0.9-17.7,2.8-25.4c1.4-6,3.4-11.3,4.9-14.9
	c0.9-2,1.6-3.3,1.7-3.6L388.6,82.7z M63.2,93.4C30.2,93.4,3,120.6,3,153.6v277.1C3,463.8,30.2,491,63.2,491h277.1
	c33.1,0,60.2-27.2,60.2-60.2V256.1c0.1-9.5-8.5-18.3-18.1-18.3c-9.5,0-18.2,8.8-18.1,18.3v174.7c0,13.7-10.4,24.1-24.1,24.1H63.2
	c-13.7,0-24.1-10.4-24.1-24.1V153.6c0-13.7,10.4-24.1,24.1-24.1H262c9.5,0.1,18.3-8.5,18.3-18.1s-8.8-18.2-18.3-18.1L63.2,93.4z"/>
<path d="M185.9,450.8h0.2c7-0.1,12.6-5.9,12.5-12.9l-7.1-317.4c-0.1-6.9-5.8-12.5-12.7-12.5h-0.2c-7,0.1-12.6,5.9-12.5,12.9
	l7.1,317.4C173.4,445.3,179,450.8,185.9,450.8z M312.1,450.8c6.9,0,10.6-5.5,10.7-12.5l7.1-317.4c0.1-7-5.5-12.8-12.5-12.9
	c-6.9-0.2-12.8,5.5-12.9,12.5L297.5,438c-0.1,7,7.5,12.8,14.5,12.9C312,450.8,312.1,450.8,312.1,450.8L312.1,450.8z M391.7,108.1
	c-7.1-0.1-12.8,5.3-13.1,12.3l-10.1,329.8c0,8.6-7,15.6-15.5,15.6l-206,0c-8.6,0-15.6-7-15.6-16l-10.1-329.4
	c-0.2-6.9-5.8-12.3-12.7-12.3c-0.1,0-0.3,0-0.4,0c-7,0.2-12.5,6.1-12.3,13.1l10.1,329c0,22.6,18.3,40.9,40.9,40.9h206
	c22.5,0,40.9-18.3,40.9-40.5L404,121.1C404.2,114.1,398.7,108.3,391.7,108.1L391.7,108.1z M412.2,62.5h-68.7
	C333.3,28.4,299.9,9,250,9s-83.3,19.4-93.6,53.5H87.8c-7,0-12.7,5.7-12.7,12.7c0,7,5.7,12.7,12.7,12.7h324.5c7,0,12.7-5.7,12.7-12.7
	C424.9,68.2,419.2,62.5,412.2,62.5L412.2,62.5z M183.7,62.5c11.8-22.8,41.5-28.2,66.3-28.2s54.5,5.3,66.3,28.2L183.7,62.5
	L183.7,62.5z M262.7,438.2V120.7c0-7-5.7-12.7-12.7-12.7s-12.7,5.7-12.7,12.7v317.4c0,7,5.7,12.7,12.7,12.7S262.7,445.2,262.7,438.2
	L262.7,438.2z"/>
</svg>
