<?xml version="1.0" encoding="utf-8"?>
<!-- Generator: Adobe Illustrator 25.0.0, SVG Export Plug-In . SVG Version: 6.00 Build 0)  -->
<svg version="1.1" xmlns="http://www.w3.org/2000/svg" xmlns:xlink="http://www.w3.org/1999/xlink" x="0px" y="0px"
	 viewBox="0 0 631.6 188.3" style="enable-background:new 0 0 631.6 188.3;" xml:space="preserve">
<style type="text/css">
	.st0{fill:#4C4C4C;}
	.st1{fill:none;}
	.st2{display:none;fill:#4C4C4C;}
	.st3{font-family:'Arial-BoldMT';}
	.st4{font-size:175px;}
	.st5{letter-spacing:-1;}
	.st6{fill:none;stroke:#FFC300;stroke-width:6;stroke-linecap:round;stroke-linejoin:round;stroke-miterlimit:10;}
</style>
<g id="type">
	<g id="le_figara">
		<path class="st0" d="M289.1,157.6c3.1,0.4,6,0.7,9,1.1c5.7,0.7,11.3,1.4,17,2.1c0.8,0.1,1.4,0.1,1.6,1.2c0.7,4.4,3.4,6.7,7.6,7.5
			c5.9,1.1,11.7,0.9,17.4-0.9c5.3-1.7,8.1-5.6,8.4-11c0.4-6.7,0.4-13.5,0.5-20.2c-0.1,0-0.2-0.1-0.4-0.1c-0.3,0.3-0.5,0.6-0.8,0.9
			c-4.4,5.5-9.7,9.9-16.5,12c-12.9,3.8-28.3,0.5-37.9-13.1c-4.8-6.7-7.4-14.2-8.4-22.3c-1.1-9.1-0.8-18.1,1.5-27
			c2.9-11.1,9.1-19.7,19.4-25.1c5.9-3.1,12.3-4.1,18.9-3.8c10.4,0.6,18.3,5.5,24.6,13.5c0.2,0.3,0.5,0.6,1,0.8c0-4,0-8.1,0-12.2
			c7.5,0,14.8,0,22.3,0c0,0.5,0,0.9,0,1.3c0,27.9,0,55.8,0,83.6c0,6.2-0.5,12.4-2,18.4c-3,11.9-10.8,18.9-22.5,22
			c-7.2,1.9-14.6,2.1-22,2c-6.7-0.1-13.3-0.8-19.7-2.9c-8.3-2.7-14.3-7.8-17.5-16C289.1,165.7,288.7,161.7,289.1,157.6z
			 M350.9,104.9c-0.1-5.4-0.6-10.7-2.7-15.7c-4-9.4-13.7-14.2-23.3-11.3c-6.7,2-10.7,6.9-12.7,13.4c-1.8,5.7-2,11.6-1.6,17.6
			c0.3,4.2,0.9,8.4,2.7,12.2c3,6.3,7.8,10.5,14.9,11.1c8.4,0.7,15.7-3.6,19.4-11.2C350.2,115.9,350.8,110.4,350.9,104.9z"/>
		<path class="st0" d="M549.1,84.5c3.6-12.9,11.1-21.6,24.6-24.4c7.7-1.6,15.4-1.6,23.1-1c4.7,0.4,9.3,1,13.7,2.7
			c4.4,1.8,8.3,4.3,11.3,8.1c2.3,3,3.3,6.5,3.8,10.1c1,6.6,1,13.3,0.8,20c-0.1,4.3-0.1,8.6-0.1,12.8c0,5.4-0.1,10.9,0,16.3
			c0.1,7.5,1.5,14.8,4.9,21.5c0.1,0.2,0.2,0.5,0.3,0.8c-0.4,0-0.7,0-1,0c-7.2,0-14.3,0-21.5,0c-0.9,0-1.2-0.3-1.5-1.1
			c-0.9-2.9-1.8-5.7-2.8-8.8c-0.5,0.4-0.9,0.8-1.3,1.1c-5.9,5.4-12.6,9.1-20.6,10.2c-8.9,1.2-17.5,0.6-25.2-4.6
			c-6.9-4.7-10.5-11.3-11.1-19.6c-0.4-6.9,1.2-13.2,5.6-18.6c3.4-4.2,8-6.6,13-8.3c6.6-2.3,13.4-3.3,20.1-4.8
			c5.5-1.3,11-2.8,16.4-4.3c0.8-0.2,1.2-0.6,1.1-1.5c-0.2-1.7-0.1-3.5-0.3-5.3c-0.6-4.1-2.9-6.9-7.1-8c-4.4-1.1-8.9-1.3-13.3-0.6
			c-4.5,0.7-7.8,3.2-9.8,7.3c-0.6,1.2-1.1,2.4-1.7,3.7C563.6,87.1,556.4,85.9,549.1,84.5z M602.9,108.1c-0.4,0.1-0.5,0.1-0.7,0.1
			c-4.2,1-8.4,2-12.5,3.2c-4.3,1.2-8.7,2.3-13,3.8c-3,1.1-5,3.4-5.9,6.5c-1.7,6.1,2.5,13,9,14.6c4.5,1.1,8.8,0.4,12.9-1.7
			c4.7-2.3,8.4-5.7,9.4-11.1c0.5-2.6,0.6-5.2,0.7-7.9C603,113.1,602.9,110.7,602.9,108.1z"/>
		<path class="st0" d="M391,84.5c3.5-12.4,10.6-21.1,23.6-24.1c7-1.6,14-1.8,21.1-1.5c5.7,0.3,11.4,0.8,16.8,2.9
			c3.6,1.4,6.8,3.4,9.6,6.2c3.6,3.5,4.9,8,5.6,12.8c1,7.6,0.7,15.2,0.7,22.9c0,9.5-0.1,18.9,0.1,28.4c0.1,6.4,1.8,12.5,4.6,18.2
			c0.1,0.3,0.3,0.6,0.4,0.9c0,0.1,0,0.2,0,0.3c-0.3,0-0.7,0-1,0c-7.1,0-14.2,0-21.2,0c-0.9,0-1.4-0.3-1.6-1.1
			c-0.7-2.3-1.4-4.7-2.2-7c-0.2-0.5-0.3-1.1-0.6-1.8c-0.4,0.4-0.8,0.7-1.1,1c-5.9,5.4-12.7,9.3-20.8,10.4
			c-8.4,1.2-16.7,0.6-24.1-3.9c-7.9-4.9-12-12.2-12.2-21.5c-0.2-7.2,1.9-13.5,6.9-18.7c3.5-3.6,7.8-5.9,12.6-7.2
			c6-1.6,12.2-2.9,18.3-4.4c5.8-1.4,11.7-3,17.5-4.5c1-0.3,1.4-0.8,1.2-1.8c-0.2-1.8-0.2-3.6-0.5-5.4c-0.7-4.1-3.1-6.6-7.1-7.6
			c-4.4-1.1-8.8-1.2-13.2-0.6c-5,0.7-8.3,3.7-10.3,8.2c-0.4,0.9-0.6,2.2-1.3,2.6c-0.7,0.4-1.9-0.2-2.9-0.3
			C403.5,86.8,397.3,85.7,391,84.5z M444.9,108.1c-0.3,0-0.5,0-0.7,0.1c-4.5,1.1-9,2.2-13.5,3.4c-4,1.1-8.1,2.1-12,3.5
			c-3.1,1.2-5.2,3.7-6,7c-1.3,5.8,2.4,12.1,8.4,13.9c7.2,2.1,13.4-0.3,18.8-5c2.4-2.1,3.9-4.9,4.4-8.1c0.3-1.9,0.5-3.7,0.5-5.6
			C444.9,114.3,444.9,111.3,444.9,108.1z"/>
		<path class="st0" d="M62.9,113.1c0.2,5.5,1.2,10.5,4.4,14.9c4.6,6.3,12.5,9.1,20,7c4.5-1.2,7.3-4.3,9.2-8.3
			c0.5-1.1,0.8-2.2,1.3-3.2c0.1-0.3,0.7-0.7,1-0.6c7.6,1.2,15.1,2.5,22.7,3.8c0.1,0,0.1,0.1,0.3,0.2c-0.5,1.2-0.9,2.5-1.5,3.7
			c-5.8,13-15.8,20.5-29.9,22.4c-9.1,1.2-18.1,0.7-26.8-2.6c-10.7-4-17.5-11.8-21.6-22.3c-3-7.7-3.8-15.7-3.6-23.9
			c0.3-9,1.9-17.7,6.5-25.6c6.4-10.8,15.7-17.6,28.2-19.4c11.5-1.6,22.4,0,32.1,6.9c8.1,5.7,12.8,13.7,15.3,23.1
			c2,7.6,2.6,15.4,2.5,23.3c0,0.2,0,0.3-0.1,0.6C102.9,113.1,83,113.1,62.9,113.1z M81.2,98.5c5.6,0,11.3,0,16.9,0
			c0.7,0,1.3,0,1.2-1c-0.3-3.6-0.8-7-2.3-10.3c-5.3-11.5-20.3-13.7-28.7-4.2c-3.6,4-4.7,8.9-5,14.2c-0.1,1.1,0.2,1.4,1.4,1.4
			C70.2,98.5,75.7,98.5,81.2,98.5z"/>
		<path class="st0" d="M236.8,43.8c-2.7-0.4-5.2-0.9-7.8-1c-2.4-0.1-4.8,0-7.1,0.3c-2.8,0.5-4.6,2.4-5.2,5.2
			c-0.4,2.1-0.6,4.2-0.7,6.3c-0.1,1.7,0,3.4,0,5.2c0,1,0.3,1.2,1.2,1.2c5.1,0,10.2,0,15.2,0c0.5,0,0.9,0,1.5,0c0,6.3,0,12.5,0,18.8
			c-6,0-11.9,0-17.9,0c0,24,0,47.8,0,71.8c-8,0-15.9,0-23.9,0c0-23.9,0-47.7,0-71.7c-4.5,0-8.8,0-13.2,0c0-6.3,0-12.5,0-18.8
			c4.3,0,8.7,0,13.2,0c0-0.7,0-1.2,0-1.7c0.2-5.1,0.2-10.2,0.7-15.3c0.9-10,6.8-15.8,16.7-18.5c5.6-1.5,11.4-1.6,17.1-0.9
			c4.1,0.5,8.2,1.6,12.3,2.4c0.8,0.2,1.1,0.5,0.9,1.4C238.7,33.4,237.8,38.6,236.8,43.8z"/>
		<path class="st0" d="M0.1,26.4c8,0,15.8,0,23.8,0c0,41.7,0,83.3,0,125.1c-7.9,0-15.8,0-23.8,0C0.1,109.8,0.1,68.1,0.1,26.4z"/>
		<path class="st0" d="M511.4,151.5c-8,0-15.9,0-23.8,0c0-30.2,0-60.3,0-90.5c7.4,0,14.7,0,22.1,0c0,4.1,0,8.2,0,12.3
			c0.1,0,0.2,0.1,0.3,0.1c0.2-0.4,0.5-0.7,0.7-1.1c2.3-3.4,4.6-6.8,7.9-9.5c3.8-3.2,8.4-4.2,13.2-4c4.8,0.2,9.3,1.6,13.6,4
			c0.5,0.3,0.9,0.5,0.6,1.3c-2.4,6.5-4.7,13.1-7,19.6c0,0.1-0.1,0.2-0.2,0.3c-1.7-0.8-3.4-1.8-5.2-2.5c-4.8-1.9-9.4-1.9-13.9,1
			c-2.1,1.3-3.4,3.3-4.4,5.4c-1.8,3.8-2.8,7.8-3,11.9c-0.4,6.6-0.7,13.2-0.8,19.8c-0.2,10.2-0.1,20.5-0.1,30.7
			C511.4,150.6,511.4,151,511.4,151.5z"/>
		<path class="st0" d="M246.7,60.9c8,0,15.8,0,23.7,0c0,30.2,0,60.4,0,90.5c-7.9,0-15.8,0-23.7,0C246.7,121.3,246.7,91.2,246.7,60.9
			z"/>
		<path class="st0" d="M246.7,48.4c0-7.4,0-14.7,0-22c7.9,0,15.8,0,23.8,0c0,0.4,0.1,0.8,0.1,1.2c0,6.5,0,13,0,19.5
			c0,1-0.2,1.4-1.3,1.4c-7.1,0-14.2,0-21.3,0C247.6,48.5,247.2,48.5,246.7,48.4z"/>
	</g>
	<rect x="-37.5" y="26.3" class="st1" width="700" height="177"/>
	<text transform="matrix(1 0 0 1 -18.8462 151.564)" class="st2 st3 st4 st5">le figara</text>
</g>
<g id="shapes">
	<g id="cable">
		<path class="st6" d="M243.4,92.4l-3.3-5.4l-6.4,3.9l-29.3-47.3c-6.1-9.9-6-11.2-16-5.1c-9.9,6.1-5,11.6,1.1,21.6l12.1,19.8
			c4.9,8,14.8,18.5,6.9,23.3c-8,4.9-7.2,2.4-12.1-5.6L175,62.8l5.3-3.3l-5.8-9.4c2.8-5.1,2.9-11.6-0.4-16.9L162.5,14l-5.4,3.3l-8-13
			l-17.9,11l8,13l-5.4,3.3l11.7,19.1c3.3,5.3,9.1,8.2,14.9,8l5.8,9.4l5.3-3.3l21.4,34.9c6.1,9.9,7.9,13.1,17.8,7
			c9.9-6.1,0.6-19.1-5.5-29l-12.1-19.8c-4.9-8-10.5-11-2.5-15.9c8-4.9,4.7-4.2,9.6,3.7l29.9,47.3l-7.7,4.7l3.3,5.4l-2.4,1.5
			l19.4,31.7l3.1-1.9l6,9.7l6.4-3.9l5.7,9.3l3.5-2.2l-5.7-9.3l6.4-3.9l-6-9.7l3.1-1.9l-19.4-31.7L243.4,92.4z M136.9,16.6l10.8-6.6
			l5.8,9.5l-1,0.6l-3.3-5.3l-3.5,2.2l3.3,5.3l-1.7,1L144,18l-3.5,2.2l3.3,5.3l-1,0.6L136.9,16.6z M149,48.6L139.4,33l21.7-13.3
			l9.6,15.6c3.7,6,1.8,13.8-4.2,17.5C160.5,56.4,152.7,54.5,149,48.6z M167.5,62.5l-2.7-4.5c1.3-0.4,2.6-1,3.9-1.7
			c1.2-0.8,2.3-1.7,3.3-2.6l2.7,4.5L167.5,62.5z M228.1,99.2l10.6-6.5l1.1,1.8l-10.6,6.5L228.1,99.2z M262.4,132.8l-9.3,5.7
			l-3.8-6.2l9.3-5.7L262.4,132.8z M259.5,121.2l-15.5,9.5L229,106.1l15.5-9.5L259.5,121.2z"/>
	</g>
	<g id="F-letter_overlay">
		<path class="st0" d="M200.8,85.4c-4.9-8.3-10.2-16.4-15.4-24.5c-1.9,0-3.7,0-5.5,0c-1.1,0-1.3,0.3-1.3,1.4c0,5.4,0,10.8,0,16.2
			c0,0.4,0,0.8,0.1,1.3h13.3v4.5c1.7-0.3,3.5,0.3,4.8,1.5C197.9,85,199.5,84.8,200.8,85.4z"/>
		<path class="st0" d="M230.5,79c-0.6-0.6-1-1.4-1.3-2.2c-0.1-0.4-0.1-0.8-0.2-1.3c-2.3-4.1-3.4-9.5-5.9-13c-0.4,0-0.8,0-1.2-0.1
			c-1-0.2-1.8-0.8-2.4-1.5c-0.9,0-1.7,0-2.6,0c-0.6,0-1.2,0.1-1.2-0.9c0.1-3.2,0-6.4,0.3-9.6c0.2-2.5,1-4.3,2.3-5.6
			c-0.2-0.2-0.4-0.5-0.5-0.8c-1.1-2-2.5-4.3-4.2-6.4c-0.3-0.2-0.5-0.5-0.8-0.7c-3.6-2.8-7.7-4.3-11-7.3c-0.5-0.1-1-0.1-1.5-0.1
			c-5.1,3.6-7.5,8.9-8,15.8c-0.1,2-0.2,3.9-0.3,5.9c0.8,0.2,1.6,0.7,2.4,1.6c5.1,6.3,9.1,13.1,12.9,20.1c0.5,0.2,1,0.6,1.4,1
			c0.2,0.3,0.5,0.7,0.8,1c0,0,0,0,0,0c0,0,0,0,0,0c0.3,0.4,0.5,0.7,0.6,0.8c0.8,1,1.3,2.1,1.4,3.3c1.1,2.1,2.5,4.1,4.4,5.6
			c0-1.2,0-2.3,0-3.5c0-1.2,0.3-1.5,1.5-1.5c4.7,0.1,9.4,0,14.1,0C231.1,79.5,230.8,79.3,230.5,79z"/>
	</g>
</g>
</svg>
